HIERARCHY
ROOT hip
{
  OFFSET 0 0 0
  CHANNELS 6 Xposition Yposition Zposition Zrotation Yrotation Xrotation
  JOINT abdomen
  {
    OFFSET 0 20.6881 -0.73152
    CHANNELS 3 Zrotation Xrotation Yrotation
    JOINT chest
    {
      OFFSET 0 11.7043 -0.48768
      CHANNELS 3 Zrotation Xrotation Yrotation
      JOINT neck
      {
        OFFSET 0 22.1894 -2.19456
        CHANNELS 3 Zrotation Xrotation Yrotation
        JOINT head
        {
          OFFSET -0.24384 7.07133 1.2192
          CHANNELS 3 Zrotation Xrotation Yrotation
          JOINT leftEye
          {
            OFFSET 4.14528 8.04674 8.04672
            CHANNELS 3 Zrotation Xrotation Yrotation
            End Site
            {
              OFFSET 1 0 0
            }
          }
          JOINT rightEye
          {
            OFFSET -3.6576 8.04674 8.04672
            CHANNELS 3 Zrotation Xrotation Yrotation
            End Site
            {
              OFFSET 1 0 0
            }
          }
        }
      }
      JOINT rCollar
      {
        OFFSET -2.68224 19.2634 -4.8768
        CHANNELS 3 Zrotation Xrotation Yrotation
        JOINT rShldr
        {
          OFFSET -8.77824 -1.95073 1.46304
          CHANNELS 3 Zrotation Xrotation Yrotation
          JOINT rForeArm
          {
            OFFSET -28.1742 -1.7115 0.48768
            CHANNELS 3 Zrotation Xrotation Yrotation
            JOINT rHand
            {
              OFFSET -22.5879 0.773209 7.07136
              CHANNELS 3 Zrotation Xrotation Yrotation
              JOINT rThumb1
              {
                OFFSET -1.2192 -0.487915 3.41376
                CHANNELS 3 Zrotation Xrotation Yrotation
                JOINT rThumb2
                {
                  OFFSET -3.37035 -0.52449 3.41376
                  CHANNELS 3 Zrotation Xrotation Yrotation
                  End Site
                  {
                    OFFSET -1.78271 -1.18214 1.43049
                  }
                }
              }
              JOINT rIndex1
              {
                OFFSET -7.75947 0.938293 5.60832
                CHANNELS 3 Zrotation Xrotation Yrotation
                JOINT rIndex2
                {
                  OFFSET -2.54057 -0.884171 1.56538
                  CHANNELS 3 Zrotation Xrotation Yrotation
                  End Site
                  {
                    OFFSET -1.62519 -0.234802 1.16502
                  }
                }
              }
              JOINT rMid1
              {
                OFFSET -8.24714 1.18213 3.41376
                CHANNELS 3 Zrotation Xrotation Yrotation
                JOINT rMid2
                {
                  OFFSET -3.10165 -0.590103 1.0647
                  CHANNELS 3 Zrotation Xrotation Yrotation
                  End Site
                  {
                    OFFSET -2.48547 -0.328903 0.83742
                  }
                }
              }
              JOINT rRing1
              {
                OFFSET -8.82822 0.546677 1.51678
                CHANNELS 3 Zrotation Xrotation Yrotation
                JOINT rRing2
                {
                  OFFSET -2.60934 -0.819778 -0.0198488
                  CHANNELS 3 Zrotation Xrotation Yrotation
                  End Site
                  {
                    OFFSET -2.33842 -0.294052 0.168128
                  }
                }
              }
              JOINT rPinky1
              {
                OFFSET -8.27202 -0.0477905 -0.4584
                CHANNELS 3 Zrotation Xrotation Yrotation
                JOINT rPinky2
                {
                  OFFSET -1.82734 -0.647385 -0.700984
                  CHANNELS 3 Zrotation Xrotation Yrotation
                  End Site
                  {
                    OFFSET -1.69225 -0.51767 -0.607171
                  }
                }
              }
            }
          }
        }
      }
      JOINT lCollar
      {
        OFFSET 2.68224 19.2634 -4.8768
        CHANNELS 3 Zrotation Xrotation Yrotation
        JOINT lShldr
        {
          OFFSET 8.77824 -1.95073 1.46304
          CHANNELS 3 Zrotation Xrotation Yrotation
          JOINT lForeArm
          {
            OFFSET 28.1742 -1.7115 0.48768
            CHANNELS 3 Zrotation Xrotation Yrotation
            JOINT lHand
            {
              OFFSET 22.5879 0.773209 7.07136
              CHANNELS 3 Zrotation Xrotation Yrotation
              JOINT lThumb1
              {
                OFFSET 1.2192 -0.487915 3.41376
                CHANNELS 3 Zrotation Xrotation Yrotation
                JOINT lThumb2
                {
                  OFFSET 3.37035 -0.52449 3.41376
                  CHANNELS 3 Zrotation Xrotation Yrotation
                  End Site
                  {
                    OFFSET 1.78271 -1.18214 1.43049
                  }
                }
              }
              JOINT lIndex1
              {
                OFFSET 7.75947 0.938293 5.60832
                CHANNELS 3 Zrotation Xrotation Yrotation
                JOINT lIndex2
                {
                  OFFSET 2.54057 -0.884171 1.56538
                  CHANNELS 3 Zrotation Xrotation Yrotation
                  End Site
                  {
                    OFFSET 1.62519 -0.234802 1.16502
                  }
                }
              }
              JOINT lMid1
              {
                OFFSET 8.24714 1.18213 3.41376
                CHANNELS 3 Zrotation Xrotation Yrotation
                JOINT lMid2
                {
                  OFFSET 3.10165 -0.590103 1.0647
                  CHANNELS 3 Zrotation Xrotation Yrotation
                  End Site
                  {
                    OFFSET 2.48547 -0.328903 0.83742
                  }
                }
              }
              JOINT lRing1
              {
                OFFSET 8.82822 0.546677 1.51678
                CHANNELS 3 Zrotation Xrotation Yrotation
                JOINT lRing2
                {
                  OFFSET 2.60934 -0.819778 -0.0198488
                  CHANNELS 3 Zrotation Xrotation Yrotation
                  End Site
                  {
                    OFFSET 2.33842 -0.294052 0.168128
                  }
                }
              }
              JOINT lPinky1
              {
                OFFSET 8.27202 -0.0477905 -0.4584
                CHANNELS 3 Zrotation Xrotation Yrotation
                JOINT lPinky2
                {
                  OFFSET 1.82734 -0.647385 -0.700984
                  CHANNELS 3 Zrotation Xrotation Yrotation
                  End Site
                  {
                    OFFSET 1.69225 -0.51767 -0.607171
                  }
                }
              }
            }
          }
        }
      }
    }
  }
  JOINT rButtock
  {
    OFFSET -8.77824 4.35084 1.2192
    CHANNELS 3 Zrotation Xrotation Yrotation
    JOINT rThigh
    {
      OFFSET 0 -1.70687 -2.19456
      CHANNELS 3 Zrotation Xrotation Yrotation
      JOINT rShin
      {
        OFFSET 0 -36.8199 0.73152
        CHANNELS 3 Zrotation Xrotation Yrotation
        JOINT rFoot
        {
          OFFSET 0.73152 -45.1104 -5.12064
          CHANNELS 3 Zrotation Xrotation Yrotation
          End Site
          {
            OFFSET -1.1221 -3.69964 12.103
          }
        }
      }
    }
  }
  JOINT lButtock
  {
    OFFSET 8.77824 4.35084 1.2192
    CHANNELS 3 Zrotation Xrotation Yrotation
    JOINT lThigh
    {
      OFFSET 0 -1.70687 -2.19456
      CHANNELS 3 Zrotation Xrotation Yrotation
      JOINT lShin
      {
        OFFSET 0 -36.8199 0.73152
        CHANNELS 3 Zrotation Xrotation Yrotation
        JOINT lFoot
        {
          OFFSET -0.73152 -45.1104 -5.12064
          CHANNELS 3 Zrotation Xrotation Yrotation
          End Site
          {
            OFFSET 1.1221 -3.69964 12.103
          }
        }
      }
    }
  }
}
MOTION
Frames:	6
Frame Time:	0.00833333
-226.875 79.918 -3.41355 0.0 0.0 0.0 -3.13121 0.00208551 -0.0845033 -0.863232 0.0181967 -0.149332 4.69507e-14 1.59028e-15 8.44835e-16 1.42175e-13 9.54166e-15 2.92741e-15 -0.0 0.0 0.0 -0.0 0.0 0.0 2.40035e-14 1.33558e-16 6.4605e-16 4.9902e-13 2.85132e-15 1.19271e-14 8.55887e-12 -2.4697e-12 9.54166e-14 9.8066e-11 3.12589e-12 2.01329e-12 2.31299e-10 1.42731e-12 4.57364e-12 3.99426e-10 2.46493e-12 7.89175e-12 2.31304e-10 1.42767e-12 4.55773e-12 7.73091 5.47488 0.417314 2.31298e-10 1.42708e-12 4.57682e-12 2.90554 0.965183 0.102902 2.31305e-10 1.42717e-12 4.58e-12 10.2786 0.731801 0.0259123 2.31292e-10 1.43085e-12 4.58954e-12 2.22167 -0.733487 -0.20892 2.3607e-14 1.37441e-16 2.48481e-16 4.96786e-13 2.62768e-15 1.03368e-14 8.57174e-12 2.66471e-12 9.22361e-14 9.8026e-11 -2.03039e-12 2.04192e-12 2.31248e-10 1.38364e-12 4.5959e-12 3.99363e-10 2.39496e-12 7.93707e-12 2.31244e-10 1.38354e-12 4.59908e-12 -7.73091 5.47488 -0.417314 2.31248e-10 1.38344e-12 4.59272e-12 -2.90554 0.965183 -0.102902 2.3124e-10 1.38384e-12 4.59511e-12 -10.2786 0.731801 -0.0259123 2.31256e-10 1.38434e-12 4.58636e-12 -2.22167 -0.733487 0.20892 -2.03217e-16 0.0 -3.88251e-19 -1.91859 -1.93503 0.0146213 -0.00850208 -2.07867 -0.069774 -0.458869 4.00011 0.132489 2.03217e-16 0.0 3.88251e-19 -2.83802 -9.32628 0.32234 -0.00902619 11.3079 -0.235092 0.527138 -1.99512 -0.01834
-221.426 77.0463 -7.60604 3.5347 69.2727 4.6249 -4.14879 9.16955 0.940869 -0.476734 -0.134775 0.126419 -1.48478 1.59715 0.958279 2.01795 -11.7468 3.17376 -0.0 0.0 0.0 -0.0 0.0 0.0 1.08748e-13 -1.49082e-13 -1.43568e-13 14.7475 -4.2884 5.26006 -12.8219 -9.82817 13.8185 0.0163008 -3.27902 -0.459869 -2.94329e-10 -2.97481e-09 8.27189e-10 -5.15965e-10 -5.13447e-09 1.4213e-09 -2.94321e-10 -2.9748e-09 8.27173e-10 7.73091 5.47488 0.417314 -2.9433e-10 -2.97481e-09 8.2719e-10 2.90554 0.965183 0.102902 -2.94323e-10 -2.97481e-09 8.27193e-10 10.2786 0.731801 0.0259123 -2.94335e-10 -2.97481e-09 8.27204e-10 2.22167 -0.733487 -0.20892 1.08451e-13 -1.49085e-13 -1.43941e-13 -19.0278 9.87565 5.4909 2.95386 -1.16146 -4.79139 -0.0150077 -2.71975 0.380685 -1.37413e-09 1.34046e-09 3.7127e-10 -2.37647e-09 2.31049e-09 6.33372e-10 -1.37414e-09 1.34046e-09 3.71273e-10 -7.73091 5.47488 -0.417314 -1.37413e-09 1.34046e-09 3.71269e-10 -2.90554 0.965183 -0.102902 -1.37414e-09 1.34046e-09 3.71269e-10 -10.2786 0.731801 -0.0259123 -1.37413e-09 1.34046e-09 3.71261e-10 -2.22167 -0.733487 0.20892 -2.03217e-16 0.0 -3.88251e-19 -7.07593 -8.97552 -5.03964 -0.0471546 15.2218 0.132676 -1.08828 0.467831 -3.87571 2.03217e-16 0.0 3.88251e-19 3.73406 -18.6281 7.98821 0.115829 26.4846 -0.423612 0.497169 0.402631 -0.299014
-218.875 76.9288 -7.52835 4.3303 69.6805 5.1094 -5.55629 18.9082 2.09819 -0.0930594 -0.279218 0.41802 -3.06851 3.29769 1.97995 5.57123 -24.158 6.98453 -0.0 0.0 0.0 -0.0 0.0 0.0 2.02968e-13 -3.16783e-13 -3.01951e-13 31.1655 -8.5915 11.1033 -21.2703 -18.3745 29.7051 -0.0271377 -6.55139 -0.925074 -8.69767e-10 -6.24383e-09 1.7329e-09 -1.51814e-09 -1.07775e-08 2.97755e-09 -8.69756e-10 -6.24381e-09 1.73289e-09 7.73091 5.47488 0.417314 -8.69768e-10 -6.24383e-09 1.7329e-09 2.90554 0.965183 0.102902 -8.69761e-10 -6.24383e-09 1.73291e-09 10.2786 0.731801 0.0259123 -8.69772e-10 -6.24383e-09 1.73292e-09 2.22167 -0.733487 -0.20892 2.02777e-13 -3.16793e-13 -3.02299e-13 -41.4458 20.1102 11.8578 5.87363 -2.36645 -9.87523 0.00864361 -5.60591 0.787587 -3.13059e-09 2.82405e-09 7.80146e-10 -5.41356e-09 4.86789e-09 1.33098e-09 -3.1306e-09 2.82406e-09 7.8015e-10 -7.73091 5.47488 -0.417314 -3.13059e-09 2.82405e-09 7.80147e-10 -2.90554 0.965183 -0.102902 -3.1306e-09 2.82405e-09 7.80145e-10 -10.2786 0.731801 -0.0259123 -3.13059e-09 2.82405e-09 7.80137e-10 -2.22167 -0.733487 0.20892 -2.03217e-16 0.0 -3.88251e-19 -13.9106 -16.3075 -10.6891 -0.23803 33.4473 0.404388 -2.28922 -3.26299 -8.13666 2.03217e-16 0.0 3.88251e-19 13.5882 -27.7546 17.2233 0.400535 42.6297 -0.732784 0.497452 2.98098 -0.543385
-216.336 76.5727 -7.36452 4.2893 70.2676 4.8756 -7.27213 27.4684 3.33147 0.300679 -0.440689 0.677939 -4.61501 4.78609 2.88378 10.6543 -34.7593 11.3709 -0.0 0.0 0.0 -0.0 0.0 0.0 2.78238e-13 -4.47514e-13 -4.31996e-13 46.619 -12.4273 16.1236 -24.7315 -22.4725 45.0416 -0.110995 -9.8345 -1.39789 -1.34558e-09 -8.92729e-09 2.47242e-09 -2.34675e-09 -1.54084e-08 4.2481e-09 -1.34557e-09 -8.92727e-09 2.4724e-09 7.73091 5.47488 0.417314 -1.34558e-09 -8.92729e-09 2.47242e-09 2.90554 0.965183 0.102902 -1.34558e-09 -8.92729e-09 2.47242e-09 10.2786 0.731801 0.0259123 -1.34559e-09 -8.9273e-09 2.47243e-09 2.22167 -0.733487 -0.20892 2.7814e-13 -4.4753e-13 -4.32319e-13 -63.3284 28.4638 18.5351 8.28474 -3.38705 -14.3969 0.0643363 -8.1578 1.15243 -4.5849e-09 4.01861e-09 1.10462e-09 -7.92814e-09 6.92668e-09 1.88424e-09 -4.5849e-09 4.01862e-09 1.10462e-09 -7.73091 5.47488 -0.417314 -4.5849e-09 4.01861e-09 1.10462e-09 -2.90554 0.965183 -0.102902 -4.5849e-09 4.01861e-09 1.10462e-09 -10.2786 0.731801 -0.0259123 -4.58489e-09 4.01861e-09 1.10461e-09 -2.22167 -0.733487 0.20892 -2.03217e-16 0.0 -3.88251e-19 -21.3273 -22.3308 -16.2077 -0.64499 49.8201 0.811437 -3.82504 -6.45142 -11.968 2.03217e-16 0.0 3.88251e-19 25.4961 -34.5592 27.1395 0.926072 56.8335 -1.23648 0.507919 5.19755 -0.863915
-213.789 76.1007 -7.07359 3.7366 70.8644 3.9528 -8.9696 33.1152 4.4338 0.717253 -0.644752 0.858648 -5.95106 5.74953 3.48405 16.0192 -41.2857 15.3786 -0.0 0.0 0.0 -0.0 0.0 0.0 3.06134e-13 -4.85821e-13 -4.91197e-13 57.9411 -15.5577 18.7737 -25.6676 -22.6099 55.4289 -0.216752 -13.1458 -1.88097 -1.57235e-09 -1.01469e-08 2.79643e-09 -2.74141e-09 -1.75089e-08 4.80442e-09 -1.57233e-09 -1.01469e-08 2.79642e-09 7.73091 5.47488 0.417314 -1.57235e-09 -1.01469e-08 2.79643e-09 2.90554 0.965183 0.102902 -1.57234e-09 -1.01469e-08 2.79643e-09 10.2786 0.731801 0.0259123 -1.57235e-09 -1.01469e-08 2.79645e-09 2.22167 -0.733487 -0.20892 3.06093e-13 -4.85839e-13 -4.91495e-13 -79.085 33.2558 23.892 9.83425 -4.04127 -17.491 0.121126 -9.87546 1.40195 -5.28381e-09 4.49058e-09 1.21808e-09 -9.13646e-09 7.73897e-09 2.07665e-09 -5.28382e-09 4.49059e-09 1.21808e-09 -7.73091 5.47488 -0.417314 -5.28382e-09 4.49059e-09 1.21808e-09 -2.90554 0.965183 -0.102902 -5.28382e-09 4.49059e-09 1.21808e-09 -10.2786 0.731801 -0.0259123 -5.28381e-09 4.49059e-09 1.21807e-09 -2.22167 -0.733487 0.20892 -2.03217e-16 0.0 -3.88251e-19 -27.2382 -25.7872 -20.3527 -1.25554 61.5633 1.36803 -5.12877 -8.4437 -14.6204 2.03217e-16 0.0 3.88251e-19 35.9656 -37.9804 35.2633 1.61681 66.1878 -1.87502 0.511528 6.50971 -1.37209
-211.228 75.6629 -6.67328 2.7951 71.4066 2.5603 -10.2313 34.7022 5.12859 1.18859 -0.937464 0.937414 -6.96712 5.95131 3.66786 19.4568 -42.3864 17.1965 -0.0 0.0 0.0 -0.0 0.0 0.0 2.5709e-13 -3.35314e-13 -4.381e-13 62.5199 -17.94 17.724 -25.7642 -21.7321 58.4978 -0.345346 -16.4418 -2.37672 -1.41705e-09 -9.19867e-09 2.48843e-09 -2.47051e-09 -1.58598e-08 4.27431e-09 -1.41704e-09 -9.19865e-09 2.48841e-09 7.73091 5.47488 0.417314 -1.41705e-09 -9.19867e-09 2.48842e-09 2.90554 0.965183 0.102902 -1.41704e-09 -9.19868e-09 2.48843e-09 10.2786 0.731801 0.0259123 -1.41705e-09 -9.19868e-09 2.48844e-09 2.22167 -0.733487 -0.20892 2.57056e-13 -3.35331e-13 -4.38369e-13 -83.7538 33.9134 25.9963 10.3182 -4.22677 -18.5071 0.141524 -10.3318 1.46922 -4.86354e-09 3.87787e-09 1.02303e-09 -8.40964e-09 6.6798e-09 1.74146e-09 -4.86355e-09 3.87788e-09 1.02303e-09 -7.73091 5.47488 -0.417314 -4.86354e-09 3.87788e-09 1.02303e-09 -2.90554 0.965183 -0.102902 -4.86355e-09 3.87788e-09 1.02302e-09 -10.2786 0.731801 -0.0259123 -4.86354e-09 3.87788e-09 1.02302e-09 -2.22167 -0.733487 0.20892 -2.03217e-16 0.0 -3.88251e-19 -29.5904 -26.0644 -21.8209 -1.72374 66.7702 1.76341 -5.69703 -8.99436 -15.6134 2.03217e-16 0.0 3.88251e-19 41.2769 -38.3687 39.0025 1.87324 68.5927 -2.06947 0.479396 6.55041 -2.23839
